<svg width="107" height="164" viewBox="0 0 107 164" fill="none" xmlns="http://www.w3.org/2000/svg">
<path d="M51.5889 151.547C48.1086 151.547 45.2458 150.424 43.0005 148.179C40.7552 145.934 39.6325 143.071 39.6325 139.591C39.6325 136.111 40.7552 133.304 43.0005 131.171C45.2458 128.925 48.1086 127.803 51.5889 127.803C55.0691 127.803 57.8758 128.925 60.0088 131.171C62.2542 133.304 63.3768 136.111 63.3768 139.591C63.3768 143.071 62.2542 145.934 60.0088 148.179C57.8758 150.424 55.0691 151.547 51.5889 151.547ZM40.3061 111.3C40.1938 102.318 41.541 94.8527 44.3477 88.9025C47.2666 82.8402 52.0379 77.3953 58.6616 72.5678C64.2749 68.414 68.0359 64.8776 69.9444 61.9586C71.9652 59.0397 73.0878 55.784 73.3124 52.1915C73.6492 46.915 72.0213 42.5927 68.4288 39.2247C64.8363 35.8567 60.065 34.1727 54.1148 34.1727C49.7365 34.1727 45.5826 35.6322 41.6533 38.5511C37.8362 41.3578 35.0296 45.0626 33.2333 49.6655L13.0254 42.0875C16.2811 33.443 21.726 26.3702 29.3601 20.8692C36.9942 15.2559 45.2458 12.4492 54.1148 12.4492C62.4226 12.4492 69.7199 14.1893 76.0068 17.6696C82.406 21.1499 87.2895 25.9773 90.6575 32.1519C94.0255 38.3266 95.5411 45.3994 95.2043 53.3703C94.8675 59.7694 92.7906 66.0002 88.9735 72.0626C85.2687 78.125 79.4309 84.1874 71.46 90.2497C68.6533 92.2705 66.5764 94.1229 65.2292 95.8069C63.9943 97.3787 63.1523 99.2872 62.7032 101.533C62.2542 103.778 62.0858 106.977 62.198 111.131L40.3061 111.3Z" fill="url(#paint0_linear_353_238)"/>
<g style="mix-blend-mode:hard-light" filter="url(#filter0_f_353_238)">
<path d="M63.378 139.59C63.378 136.327 62.3913 133.656 60.4179 131.578L59.602 130.762C57.5234 128.788 54.8527 127.802 51.5901 127.802C48.1099 127.802 45.2466 128.925 43.0013 131.17C40.7564 133.303 39.6339 136.11 39.6339 139.59L39.6467 140.234C39.7782 143.425 40.8963 146.073 43.0013 148.178C45.2466 150.424 48.1099 151.546 51.5901 151.546C55.0704 151.546 57.8775 150.424 60.0106 148.178C62.2559 145.933 63.378 143.07 63.378 139.59ZM54.116 8.2793C63.0068 8.2793 71.0102 10.1437 77.9989 14.0056C85.0761 17.8546 90.5519 23.2494 94.3182 30.1541C98.0955 37.079 99.7356 44.9214 99.3713 53.5449L99.3687 53.5885C98.9911 60.7617 96.6628 67.6561 92.5311 74.2338L92.5324 74.235C88.471 80.881 82.2126 87.3097 73.9852 93.5672L73.8978 93.6315C71.2447 95.5417 69.5076 97.1355 68.494 98.3993C67.7254 99.3839 67.1304 100.662 66.793 102.349C66.4357 104.135 66.257 106.967 66.3664 111.017L66.4821 115.266L36.1907 115.5L36.1393 111.351C36.0218 101.956 37.4218 93.8144 40.5782 87.1227L40.5859 87.1073L40.5923 87.0932C43.8679 80.2901 49.1483 74.3423 56.2076 69.1974C61.7252 65.1122 64.9742 61.9427 66.4564 59.6759L66.4872 59.6296L66.518 59.5846C68.1003 57.2992 68.9753 54.7756 69.1531 51.9299V51.9247C69.4173 47.7861 68.1893 44.7117 65.5789 42.2644C62.9139 39.7662 59.2401 38.3407 54.116 38.3407C50.738 38.3408 47.4403 39.446 44.1409 41.897L44.1319 41.9021L44.1242 41.9086C40.9718 44.2265 38.6403 47.2796 37.1183 51.1796L35.6228 55.0121L7.6543 44.5244L9.12538 40.6173C12.6713 31.2024 18.6219 23.4772 26.8914 17.5092C35.1893 11.4078 44.2961 8.27934 54.116 8.2793ZM54.116 12.4484C45.2473 12.4485 36.9959 15.2546 29.362 20.8676C21.7281 26.3685 16.283 33.4417 13.0273 42.0859L33.2344 49.6648C34.9183 45.3496 37.4908 41.8236 40.9508 39.0872L41.6549 38.5501C45.5841 35.6313 49.7377 34.1716 54.116 34.1716C60.0659 34.1716 64.8373 35.8556 68.4298 39.2234C72.0223 42.5913 73.6501 46.9142 73.3133 52.1907L73.2606 52.8601C72.9448 56.1886 71.8403 59.2212 69.9458 61.9576L69.5668 62.5127C67.5605 65.3215 63.9252 68.672 58.6629 72.5661C52.0393 77.3934 47.268 82.8387 44.3491 88.9009L44.0908 89.4636C41.4601 95.3196 40.1984 102.598 40.3071 111.299L62.1999 111.13C62.0946 107.236 62.2357 104.18 62.6238 101.963L62.7048 101.532C63.1539 99.2863 63.9957 97.377 65.2307 95.8053C66.4094 94.332 68.1471 92.7301 70.4431 90.9989L71.4619 90.2486C79.4326 84.1863 85.2701 78.1235 88.9748 72.0612C92.6724 66.1884 94.7371 60.1577 95.1688 53.9688L95.206 53.3688C95.5322 45.6472 94.1193 38.7686 90.9688 32.7326L90.6592 32.1506C87.3964 26.1689 82.711 21.4518 76.6036 17.9987L76.0087 17.6685C69.9183 14.297 62.879 12.5589 54.892 12.4536L54.116 12.4484ZM67.5471 139.59C67.5471 144.023 66.086 147.954 63.0311 151.049L63.0324 151.05C60.0112 154.23 56.0573 155.715 51.5901 155.715C47.121 155.715 43.16 154.232 40.054 151.126C36.9481 148.02 35.4648 144.059 35.4648 139.59C35.4648 135.122 36.9509 131.168 40.1311 128.147C43.2256 125.093 47.1574 123.633 51.5901 123.632C56.0155 123.632 59.9361 125.091 62.9463 128.21C66.0816 131.223 67.5471 135.153 67.5471 139.59Z" fill="#00827D"/>
</g>
<g style="mix-blend-mode:hard-light" filter="url(#filter1_f_353_238)">
<path d="M63.3772 139.592C63.3772 136.33 62.3905 133.659 60.4171 131.581L59.6013 130.765C57.5226 128.791 54.852 127.805 51.5893 127.805C48.1091 127.805 45.2458 128.928 43.0005 131.173C40.7556 133.306 39.6331 136.113 39.6331 139.592L39.646 140.237C39.7774 143.428 40.8955 146.076 43.0005 148.181C45.2458 150.427 48.1091 151.549 51.5893 151.549C55.0696 151.549 57.8768 150.427 60.0098 148.181C62.2551 145.936 63.3772 143.073 63.3772 139.592ZM54.1152 7C63.1858 7 71.4063 8.90242 78.6109 12.8817C85.8969 16.8443 91.5553 22.4133 95.4442 29.5428C99.3474 36.6987 101.024 44.7775 100.651 53.6017L100.649 53.6583C100.259 61.0697 97.854 68.1693 93.6249 74.9061C89.4538 81.7316 83.0668 88.2727 74.7604 94.5903L74.7039 94.6339L74.6461 94.6763C72.0453 96.5489 70.4142 98.0603 69.5018 99.1949C68.874 100 68.3535 101.086 68.05 102.603C67.721 104.248 67.5393 106.967 67.6479 110.985L67.7982 116.542L34.9231 116.795L34.855 111.37C34.736 101.847 36.1532 93.4981 39.4173 86.5783L39.4276 86.5591L39.4365 86.5398C42.8219 79.5087 48.258 73.4061 55.4514 68.1635C60.9385 64.1001 64.0302 61.0438 65.3815 58.9773L65.4213 58.9169L65.4624 58.8578C66.9097 56.7673 67.7079 54.4691 67.8714 51.8531L67.8727 51.8454C68.1144 48.0573 67.0087 45.3679 64.7006 43.204C62.321 40.9731 58.9854 39.6258 54.1152 39.6258C51.045 39.6259 48.0102 40.622 44.9046 42.929L44.8943 42.9367L44.8828 42.9444C41.9348 45.1121 39.75 47.9651 38.3124 51.6489L36.3569 56.6608L6 45.2763L7.92461 40.168C11.5659 30.4997 17.6864 22.5642 26.1737 16.4483C34.6647 10.2171 44.0195 7.00004 54.1152 7ZM54.1152 12.4513C45.2465 12.4514 36.9951 15.2576 29.3613 20.8705C21.7273 26.3715 16.2822 33.4446 13.0265 42.0888L33.2336 49.6677C34.9176 45.3526 37.49 41.8266 40.95 39.0901L41.6541 38.553C45.5833 35.6342 49.7369 34.1745 54.1152 34.1745C60.0652 34.1745 64.8365 35.8585 68.429 39.2263C72.0215 42.5943 73.6493 46.9171 73.3125 52.1936L73.2598 52.863C72.944 56.1915 71.8395 59.2241 69.9451 61.9606L69.5661 62.5156C67.5597 65.3244 63.9244 68.6749 58.6621 72.569C52.0385 77.3964 47.2672 82.8416 44.3483 88.9038L44.09 89.4665C41.4594 95.3225 40.1976 102.601 40.3063 111.301L62.1991 111.133C62.0938 107.239 62.2349 104.183 62.6231 101.966L62.704 101.535C63.1531 99.2892 63.995 97.38 65.2299 95.8082C66.4087 94.3349 68.1464 92.733 70.4423 91.0019L71.4611 90.2515C79.4318 84.1892 85.2693 78.1264 88.974 72.0641C92.6717 66.1913 94.7363 60.1606 95.168 53.9718L95.2052 53.3718C95.5314 45.6501 94.1185 38.7715 90.968 32.7355L90.6584 32.1535C87.2905 25.9791 82.4069 21.1517 76.008 17.6714C69.9175 14.2999 62.8782 12.5618 54.8912 12.4565L54.1152 12.4513ZM68.8286 139.592C68.8286 144.366 67.2349 148.665 63.8642 152.036C60.5822 155.434 56.3139 157 51.5893 157C46.8159 157 42.517 155.406 39.1462 152.036C35.7754 148.665 34.1818 144.366 34.1818 139.592C34.1818 134.821 35.7785 130.514 39.2464 127.22C42.6021 123.917 46.8627 122.353 51.5893 122.353C56.3135 122.353 60.581 123.92 63.8629 127.318C67.2614 130.6 68.8285 134.868 68.8286 139.592Z" fill="#00827D"/>
</g>
<g style="mix-blend-mode:hard-light" filter="url(#filter2_di_353_238)">
<path d="M63.378 139.59C63.378 136.327 62.3913 133.656 60.4179 131.578L59.602 130.762C57.5234 128.788 54.8527 127.802 51.5901 127.802C48.1099 127.802 45.2466 128.925 43.0013 131.17C40.7564 133.303 39.6339 136.11 39.6339 139.59L39.6467 140.234C39.7782 143.425 40.8963 146.073 43.0013 148.178C45.2466 150.424 48.1099 151.546 51.5901 151.546C55.0704 151.546 57.8775 150.424 60.0106 148.178C62.2559 145.933 63.378 143.07 63.378 139.59ZM54.116 8.2793C63.0068 8.2793 71.0102 10.1437 77.9989 14.0056C85.0761 17.8546 90.5519 23.2494 94.3182 30.1541C98.0955 37.079 99.7356 44.9214 99.3713 53.5449L99.3687 53.5885C98.9911 60.7617 96.6628 67.6561 92.5311 74.2338L92.5324 74.235C88.471 80.881 82.2126 87.3097 73.9852 93.5672L73.8978 93.6315C71.2447 95.5417 69.5076 97.1355 68.494 98.3993C67.7254 99.3839 67.1304 100.662 66.793 102.349C66.4357 104.135 66.257 106.967 66.3664 111.017L66.4821 115.266L36.1907 115.5L36.1393 111.351C36.0218 101.956 37.4218 93.8144 40.5782 87.1227L40.5859 87.1073L40.5923 87.0932C43.8679 80.2901 49.1483 74.3423 56.2076 69.1974C61.7252 65.1122 64.9742 61.9427 66.4564 59.6759L66.4872 59.6296L66.518 59.5846C68.1003 57.2992 68.9753 54.7756 69.1531 51.9299V51.9247C69.4173 47.7861 68.1893 44.7117 65.5789 42.2644C62.9139 39.7662 59.2401 38.3407 54.116 38.3407C50.738 38.3408 47.4403 39.446 44.1409 41.897L44.1319 41.9021L44.1242 41.9086C40.9718 44.2265 38.6403 47.2796 37.1183 51.1796L35.6228 55.0121L7.6543 44.5244L9.12538 40.6173C12.6713 31.2024 18.6219 23.4772 26.8914 17.5092C35.1893 11.4078 44.2961 8.27934 54.116 8.2793ZM54.116 12.4484C45.2473 12.4485 36.9959 15.2546 29.362 20.8676C21.7281 26.3685 16.283 33.4417 13.0273 42.0859L33.2344 49.6648C34.9183 45.3496 37.4908 41.8236 40.9508 39.0872L41.6549 38.5501C45.5841 35.6313 49.7377 34.1716 54.116 34.1716C60.0659 34.1716 64.8373 35.8556 68.4298 39.2234C72.0223 42.5913 73.6501 46.9142 73.3133 52.1907L73.2606 52.8601C72.9448 56.1886 71.8403 59.2212 69.9458 61.9576L69.5668 62.5127C67.5605 65.3215 63.9252 68.672 58.6629 72.5661C52.0393 77.3934 47.268 82.8387 44.3491 88.9009L44.0908 89.4636C41.4601 95.3196 40.1984 102.598 40.3071 111.299L62.1999 111.13C62.0946 107.236 62.2357 104.18 62.6238 101.963L62.7048 101.532C63.1539 99.2863 63.9957 97.377 65.2307 95.8053C66.4094 94.332 68.1471 92.7301 70.4431 90.9989L71.4619 90.2486C79.4326 84.1863 85.2701 78.1235 88.9748 72.0612C92.6724 66.1884 94.7371 60.1577 95.1688 53.9688L95.206 53.3688C95.5322 45.6472 94.1193 38.7686 90.9688 32.7326L90.6592 32.1506C87.3964 26.1689 82.711 21.4518 76.6036 17.9987L76.0087 17.6685C69.9183 14.297 62.879 12.5589 54.892 12.4536L54.116 12.4484ZM67.5471 139.59C67.5471 144.023 66.086 147.954 63.0311 151.049L63.0324 151.05C60.0112 154.23 56.0573 155.715 51.5901 155.715C47.121 155.715 43.16 154.232 40.054 151.126C36.9481 148.02 35.4648 144.059 35.4648 139.59C35.4648 135.122 36.9509 131.168 40.1311 128.147C43.2256 125.093 47.1574 123.633 51.5901 123.632C56.0155 123.632 59.9361 125.091 62.9463 128.21C66.0816 131.223 67.5471 135.153 67.5471 139.59Z" fill="#00827D" fill-opacity="0.2"/>
</g>
<g filter="url(#filter3_f_353_238)">
<path d="M63.3765 139.59C63.3765 136.327 62.3898 133.656 60.4164 131.578L59.6005 130.762C57.5219 128.789 54.8513 127.802 51.5886 127.802C48.1084 127.802 45.2451 128.925 42.9998 131.17C40.7549 133.303 39.6324 136.11 39.6324 139.59L39.6453 140.235C39.7767 143.425 40.8948 146.073 42.9998 148.178C45.2451 150.424 48.1084 151.546 51.5886 151.546C55.0689 151.546 57.876 150.424 60.0091 148.178C62.2544 145.933 63.3765 143.07 63.3765 139.59ZM54.1145 9.88281C62.7815 9.88281 70.5138 11.6995 77.2329 15.4151L77.8663 15.7671C84.3749 19.4475 89.4097 24.5053 92.9099 30.9225C96.5297 37.5589 98.1214 45.1056 97.7677 53.4782L97.7664 53.491V53.5039C97.404 60.39 95.1668 67.04 91.1446 73.4283C87.2197 79.8397 81.129 86.1171 73.0124 92.2902L72.9867 92.3108L72.9585 92.3301C70.247 94.2823 68.3804 95.9751 67.2386 97.3998C66.2902 98.6102 65.5996 100.131 65.2189 102.034C64.8264 103.997 64.6523 106.971 64.7628 111.061L64.8335 113.675L37.772 113.884L37.7412 111.331C37.6258 102.095 39.0055 94.214 42.0273 87.8076L42.0311 87.7973L42.0362 87.7884C45.1724 81.275 50.251 75.5243 57.135 70.5041C62.6986 66.3871 66.15 63.0732 67.7975 60.5535L67.8155 60.5252L67.8347 60.4969C69.5856 57.9679 70.5554 55.1631 70.7512 52.0302L70.7525 52.0276C71.0446 47.4515 69.6625 43.8968 66.6746 41.0954C63.6529 38.2625 59.5564 36.7374 54.1145 36.7374C50.3519 36.7374 46.7251 37.9789 43.1836 40.6097L43.1733 40.6175C39.7652 43.1234 37.2501 46.4272 35.6226 50.5977L34.7027 52.9552L9.71875 43.5866L10.6245 41.1828C14.0617 32.0565 19.8243 24.5768 27.8599 18.7864C35.8971 12.8824 44.6682 9.88286 54.1145 9.88281ZM54.1145 12.4485C45.2458 12.4486 36.9944 15.2547 29.3606 20.8677C21.7266 26.3686 16.2815 33.4418 13.0258 42.086L33.2329 49.6649C34.9169 45.3498 37.4893 41.8237 40.9493 39.0873L41.6534 38.5502C45.5826 35.6314 49.7362 34.1717 54.1145 34.1717C60.0645 34.1717 64.8358 35.8557 68.4283 39.2235C72.0208 42.5915 73.6486 46.9143 73.3118 52.1908L73.2591 52.8602C72.9433 56.1887 71.8388 59.2213 69.9444 61.9577L69.5653 62.5128C67.559 65.3216 63.9237 68.6721 58.6614 72.5662C52.0378 77.3935 47.2665 82.8388 44.3476 88.901L44.0893 89.4637C41.4587 95.3197 40.1969 102.598 40.3056 111.299L62.1984 111.13C62.0931 107.236 62.2342 104.18 62.6224 101.963L62.7033 101.532C63.1524 99.2864 63.9943 97.3771 65.2292 95.8054C66.408 94.3321 68.1457 92.7302 70.4416 90.999L71.4604 90.2487C79.4311 84.1864 85.2686 78.1236 88.9733 72.0613C92.671 66.1885 94.7356 60.1578 95.1673 53.9689L95.2045 53.3689C95.5307 45.6473 94.1178 38.7687 90.9673 32.7327L90.6577 32.1507C87.3949 26.1691 82.7095 21.4519 76.6021 17.9988L76.0073 17.6686C69.9168 14.2971 62.8775 12.559 54.8905 12.4537L54.1145 12.4485ZM65.9423 139.59C65.9423 143.678 64.5982 147.218 61.8232 149.993L61.8219 149.991C59.1481 152.78 55.6533 154.112 51.5886 154.112C47.4999 154.112 43.9607 152.767 41.1857 149.993C38.4108 147.218 37.0667 143.678 37.0667 139.59C37.0667 135.513 38.4057 132.008 41.2114 129.331C43.9826 126.573 47.5122 125.236 51.5886 125.236C55.4209 125.236 58.748 126.419 61.3569 128.891L62.287 129.821C64.7593 132.43 65.9422 135.757 65.9423 139.59Z" fill="#00CCC4"/>
</g>
<g filter="url(#filter4_f_353_238)">
<path d="M63.3773 139.593C63.3773 136.33 62.3906 133.659 60.4172 131.581L59.6013 130.765C57.5227 128.792 54.852 127.805 51.5894 127.805C48.1092 127.805 45.2459 128.928 43.0006 131.173C40.7557 133.306 39.6332 136.113 39.6332 139.593L39.646 140.238C39.7775 143.428 40.8956 146.076 43.0006 148.181C45.2459 150.427 48.1092 151.549 51.5894 151.549C55.0697 151.549 57.8768 150.427 60.0099 148.181C62.2552 145.936 63.3773 143.073 63.3773 139.593ZM54.1153 11.168C62.606 11.168 70.1238 12.9478 76.6286 16.5487C83.2329 20.1421 88.2946 25.1426 91.7839 31.5395C95.2778 37.9449 96.8314 45.2543 96.4862 53.4259V53.44C96.1368 60.0773 93.9812 66.5116 90.0674 72.7323C86.2529 78.9743 80.287 85.1507 72.2372 91.2731L72.2243 91.2833L72.2102 91.2923C69.4487 93.2806 67.4763 95.0549 66.2321 96.6101C65.1421 98.0004 64.3764 99.7139 63.9619 101.786C63.5411 103.891 63.37 106.977 63.4814 111.099L63.5161 112.405L39.0396 112.594L39.0242 111.318C38.9103 102.21 40.2741 94.5361 43.1882 88.3579L43.192 88.3476C46.2196 82.0598 51.1453 76.4625 57.899 71.5388L58.9242 70.7717C63.9312 66.9783 67.2041 63.8084 68.8711 61.2592L68.8813 61.2438L68.8903 61.2309C70.7762 58.5069 71.8227 55.4755 72.0329 52.1128C72.3473 47.1865 70.8419 43.2477 67.5516 40.163C64.2445 37.0626 59.8113 35.4568 54.1153 35.4568C50.0448 35.4569 46.154 36.8074 42.4186 39.5823L42.4135 39.5861C38.8009 42.2424 36.1404 45.7476 34.4285 50.1342L33.9686 51.3124L11.373 42.8392L11.8253 41.6379C15.1717 32.7525 20.7762 25.4757 28.611 19.83C36.4465 14.0715 44.9577 11.168 54.1153 11.168ZM54.1153 12.4515C45.2466 12.4515 36.9952 15.2577 29.3613 20.8707L28.6521 21.391C21.389 26.8152 16.1807 33.7146 13.0266 42.0889L33.2337 49.6679C34.9176 45.3527 37.4901 41.8267 40.9501 39.0902L41.6542 38.5532C45.5834 35.6343 49.737 34.1747 54.1153 34.1746C60.0652 34.1746 64.8366 35.8586 68.4291 39.2264C72.0216 42.5944 73.6494 46.9172 73.3126 52.1937L73.2599 52.8631C72.9441 56.1916 71.8396 59.2242 69.9451 61.9607L69.5661 62.5157C67.5598 65.3245 63.9245 68.675 58.6621 72.5692C52.0386 77.3965 47.2673 82.8417 44.3484 88.9039L44.0901 89.4667C41.4594 95.3226 40.1977 102.601 40.3064 111.302L62.1992 111.133C62.0939 107.239 62.235 104.183 62.6231 101.966L62.7041 101.535C63.1531 99.2893 63.995 97.3801 65.23 95.8084C66.4087 94.335 68.1464 92.7331 70.4423 91.002L71.4612 90.2517C79.4319 84.1894 85.2694 78.1265 88.9741 72.0642C92.6717 66.1914 94.7364 60.1607 95.168 53.9719L95.2053 53.3719C95.5315 45.6502 94.1186 38.7716 90.9681 32.7357L90.6584 32.1537C87.3957 26.172 82.7103 21.4548 76.6029 18.0017L76.008 17.6716C69.9176 14.3001 62.8782 12.562 54.8913 12.4566L54.1153 12.4515ZM64.6608 139.593C64.6608 143.377 63.427 146.578 60.9169 149.088L60.9157 149.087C58.5121 151.604 55.3615 152.832 51.5894 152.832C47.8049 152.832 44.6037 151.599 42.0936 149.088C39.5835 146.578 38.351 143.377 38.351 139.593C38.351 135.821 39.5771 132.67 42.0936 130.266L42.5728 129.81C45.0066 127.606 48.0414 126.522 51.5894 126.522C55.3734 126.522 58.5337 127.756 60.9401 130.289C63.4411 132.69 64.6608 135.832 64.6608 139.593Z" fill="white"/>
</g>
<defs>
<filter id="filter0_f_353_238" x="0.268672" y="0.893672" width="106.537" height="162.207" filterUnits="userSpaceOnUse" color-interpolation-filters="sRGB">
<feFlood flood-opacity="0" result="BackgroundImageFix"/>
<feBlend mode="normal" in="SourceGraphic" in2="BackgroundImageFix" result="shape"/>
<feGaussianBlur stdDeviation="3.69281" result="effect1_foregroundBlur_353_238"/>
</filter>
<filter id="filter1_f_353_238" x="3.53813" y="4.53813" width="99.6269" height="154.924" filterUnits="userSpaceOnUse" color-interpolation-filters="sRGB">
<feFlood flood-opacity="0" result="BackgroundImageFix"/>
<feBlend mode="normal" in="SourceGraphic" in2="BackgroundImageFix" result="shape"/>
<feGaussianBlur stdDeviation="1.23094" result="effect1_foregroundBlur_353_238"/>
</filter>
<filter id="filter2_di_353_238" x="4.45386" y="7.54073" width="98.1665" height="153.836" filterUnits="userSpaceOnUse" color-interpolation-filters="sRGB">
<feFlood flood-opacity="0" result="BackgroundImageFix"/>
<feColorMatrix in="SourceAlpha" type="matrix" values="0 0 0 0 0 0 0 0 0 0 0 0 0 0 0 0 0 0 127 0" result="hardAlpha"/>
<feOffset dy="2.46187"/>
<feGaussianBlur stdDeviation="1.60022"/>
<feColorMatrix type="matrix" values="0 0 0 0 0.56 0 0 0 0 0.44 0 0 0 0 0 0 0 0 1 0"/>
<feBlend mode="color-dodge" in2="BackgroundImageFix" result="effect1_dropShadow_353_238"/>
<feBlend mode="normal" in="SourceGraphic" in2="effect1_dropShadow_353_238" result="shape"/>
<feColorMatrix in="SourceAlpha" type="matrix" values="0 0 0 0 0 0 0 0 0 0 0 0 0 0 0 0 0 0 127 0" result="hardAlpha"/>
<feOffset dx="-0.316875" dy="0.63375"/>
<feGaussianBlur stdDeviation="0.158438"/>
<feComposite in2="hardAlpha" operator="arithmetic" k2="-1" k3="1"/>
<feColorMatrix type="matrix" values="0 0 0 0 1 0 0 0 0 1 0 0 0 0 1 0 0 0 0.5 0"/>
<feBlend mode="normal" in2="shape" result="effect2_innerShadow_353_238"/>
</filter>
<filter id="filter3_f_353_238" x="9.23125" y="9.39531" width="89.0727" height="145.204" filterUnits="userSpaceOnUse" color-interpolation-filters="sRGB">
<feFlood flood-opacity="0" result="BackgroundImageFix"/>
<feBlend mode="normal" in="SourceGraphic" in2="BackgroundImageFix" result="shape"/>
<feGaussianBlur stdDeviation="0.24375" result="effect1_foregroundBlur_353_238"/>
</filter>
<filter id="filter4_f_353_238" x="6.37305" y="6.16797" width="95.1602" height="151.664" filterUnits="userSpaceOnUse" color-interpolation-filters="sRGB">
<feFlood flood-opacity="0" result="BackgroundImageFix"/>
<feBlend mode="normal" in="SourceGraphic" in2="BackgroundImageFix" result="shape"/>
<feGaussianBlur stdDeviation="2.5" result="effect1_foregroundBlur_353_238"/>
</filter>
<linearGradient id="paint0_linear_353_238" x1="54.1378" y1="12.4492" x2="54.1378" y2="151.547" gradientUnits="userSpaceOnUse">
<stop stop-color="#C3FFE7"/>
<stop offset="1" stop-color="#03DBD3"/>
</linearGradient>
</defs>
</svg>
